<svg id="Layer_1" data-name="Layer 1" xmlns="http://www.w3.org/2000/svg" xmlns:xlink="http://www.w3.org/1999/xlink" viewBox="0 0 1025 1025"><defs><style>.cls-1{fill:#543574;stroke:#231f20;}.cls-1,.cls-2{stroke-miterlimit:10;}.cls-2{fill:none;stroke-width:50px;stroke:url(#linear-gradient);}.cls-3{fill:url(#linear-gradient-2);}.cls-4{fill:url(#linear-gradient-3);}.cls-5{fill:url(#linear-gradient-4);}</style><linearGradient id="linear-gradient" x1="512.45" y1="243.19" x2="512.45" y2="432.59" gradientUnits="userSpaceOnUse"><stop offset="0" stop-color="#fafbf9"/><stop offset="0.26" stop-color="#f7f7f7"/><stop offset="0.49" stop-color="#f0ecf2"/><stop offset="0.72" stop-color="#e3daea"/><stop offset="0.95" stop-color="#d0c0de"/><stop offset="1" stop-color="#cbb8da"/><stop offset="1"/></linearGradient><linearGradient id="linear-gradient-2" x1="699.6" y1="584.45" x2="699.6" y2="822.87" gradientUnits="userSpaceOnUse"><stop offset="0" stop-color="#fdfefc"/><stop offset="0.3" stop-color="#fcfcfb" stop-opacity="0.99"/><stop offset="0.44" stop-color="#f7f7f8" stop-opacity="0.97"/><stop offset="0.55" stop-color="#f0eef3" stop-opacity="0.93"/><stop offset="0.64" stop-color="#e5e0ec" stop-opacity="0.87"/><stop offset="0.72" stop-color="#d7cfe3" stop-opacity="0.8"/><stop offset="0.8" stop-color="#c5bad8" stop-opacity="0.71"/><stop offset="0.86" stop-color="#b0a0cb" stop-opacity="0.6"/><stop offset="0.93" stop-color="#9883bb" stop-opacity="0.47"/><stop offset="0.99" stop-color="#7e63aa" stop-opacity="0.34"/><stop offset="1" stop-color="#775aa6" stop-opacity="0.3"/></linearGradient><linearGradient id="linear-gradient-3" x1="512.45" y1="432.59" x2="512.45" y2="790.64" xlink:href="#linear-gradient"/><linearGradient id="linear-gradient-4" x1="699.6" y1="602.84" x2="699.6" y2="804.48" xlink:href="#linear-gradient-2"/></defs><rect class="cls-1" x="0.5" y="0.5" width="1024" height="1024"/><path class="cls-2" d="M412.09,432.59V361.73c0-5.59.53-46.67,37.63-73.7,26.22-19.09,56.08-19.89,63.32-19.84a107.65,107.65,0,0,1,65.28,22.68,91.41,91.41,0,0,1,34.5,59.52v82.2" transform="translate(0.5 0.5)"/><path class="cls-3" d="M699.6,584.45A119.21,119.21,0,1,0,818.81,703.66,119.21,119.21,0,0,0,699.6,584.45Zm0,218.42a99.22,99.22,0,1,1,99.22-99.21A99.21,99.21,0,0,1,699.6,802.87Z" transform="translate(0.5 0.5)"/><path class="cls-4" d="M545.23,703.66A154.37,154.37,0,0,1,699.6,549.29q7.47,0,14.77.71V490.92A58.34,58.34,0,0,0,656,432.59H368.87a58.33,58.33,0,0,0-58.33,58.33V732.31a58.33,58.33,0,0,0,58.33,58.33H572.06A153.69,153.69,0,0,1,545.23,703.66Z" transform="translate(0.5 0.5)"/><path class="cls-5" d="M699.59,602.84A100.82,100.82,0,1,0,800.42,703.66,100.82,100.82,0,0,0,699.59,602.84Zm0,24.25A35.64,35.64,0,1,1,664,662.72,35.64,35.64,0,0,1,699.59,627.09Zm0,165a78.65,78.65,0,0,1-68.16-39.37,78.71,78.71,0,0,1,136.34,0A78.68,78.68,0,0,1,699.59,792.05Z" transform="translate(0.5 0.5)"/></svg>